<svg width="163" height="17" viewBox="0 0 163 17" fill="none" xmlns="http://www.w3.org/2000/svg">
<path d="M0.998291 8.5C0.998291 12.9183 4.58001 16.5 8.99829 16.5C13.4166 16.5 16.9983 12.9183 16.9983 8.5C16.9983 4.08172 13.4166 0.5 8.99829 0.5C4.58001 0.5 0.998291 4.08172 0.998291 8.5ZM146.002 8.5C146.002 12.9183 149.583 16.5 154.002 16.5C158.42 16.5 162.002 12.9183 162.002 8.5C162.002 4.08172 158.42 0.5 154.002 0.5C149.583 0.5 146.002 4.08172 146.002 8.5ZM8.99829 10H154.002V7H8.99829V10Z" fill="#2A3553"/>
</svg>
